<?xml version="1.0" standalone="no"?>
<!DOCTYPE svg PUBLIC "-//W3C//DTD SVG 20010904//EN"
 "http://www.w3.org/TR/2001/REC-SVG-20010904/DTD/svg10.dtd">
<svg version="1.0" xmlns="http://www.w3.org/2000/svg"
 width="136.000000pt" height="136.000000pt" viewBox="0 0 136.000000 136.000000"
 preserveAspectRatio="xMidYMid meet">
<metadata>
Created by potrace 1.11, written by Peter Selinger 2001-2013
</metadata>
<g transform="translate(0.000000,136.000000) scale(0.100000,-0.100000)"
fill="#000000" stroke="none">
<path d="M545 1316 c-238 -55 -411 -210 -491 -441 -25 -71 -28 -94 -28 -205 0
-111 3 -134 28 -205 71 -205 212 -347 415 -419 78 -28 97 -30 211 -30 114 0
133 2 211 30 203 72 344 214 415 419 25 71 28 94 28 205 0 111 -3 134 -28 205
-71 205 -214 349 -414 418 -104 36 -250 45 -347 23z m126 -84 c10 -23 14 -42
9 -42 -6 0 -10 5 -10 10 0 17 -37 11 -44 -6 -4 -9 -9 -15 -12 -12 -9 10 18 99
29 95 6 -2 19 -22 28 -45z m137 18 c5 -13 3 -13 -11 -1 -14 11 -20 11 -32 1
-24 -20 -15 -55 13 -54 12 0 22 -3 22 -8 0 -5 -12 -8 -27 -6 -30 3 -39 23 -29
64 5 20 12 25 33 22 15 -2 29 -10 31 -18z m-328 -51 c22 -43 20 -66 -4 -34
-16 22 -39 11 -31 -16 12 -36 -10 -19 -27 21 -9 22 -13 40 -8 40 4 0 10 -7 14
-15 9 -25 38 -6 32 21 -9 36 1 29 24 -17z m436 28 c2 -7 0 -31 -5 -52 -5 -22
-9 -33 -10 -24 -1 21 -32 34 -42 17 -4 -7 -11 -10 -14 -6 -3 3 6 19 20 34 16
18 25 22 21 12 -3 -10 0 -20 6 -24 8 -5 9 3 5 24 -6 31 8 46 19 19z m116 -64
c22 -20 23 -31 1 -55 -19 -21 -56 -24 -71 -5 -8 9 -4 21 14 45 29 37 31 38 56
15z m-632 -61 c3 -2 -4 -3 -15 -1 -27 5 -45 -8 -38 -26 3 -8 1 -15 -4 -15 -5
0 -16 20 -25 44 -24 66 -5 65 82 -2z m350 38 c254 -40 438 -288 400 -537 -39
-256 -287 -442 -537 -403 -256 39 -442 287 -403 538 34 223 225 394 460 411 8
0 44 -4 80 -9z m385 -70 c19 -21 7 -28 -13 -8 -6 6 -15 9 -19 5 -4 -4 -1 -13
5 -19 20 -20 13 -32 -7 -14 -22 20 -40 4 -21 -19 8 -10 9 -15 2 -15 -6 0 -15
8 -21 18 -8 13 -4 23 17 45 31 32 34 33 57 7z m-871 -23 c-1 -10 5 -17 17 -17
11 0 19 -5 19 -11 0 -7 -10 -9 -25 -7 -25 5 -35 -7 -12 -15 6 -2 9 -7 6 -11
-4 -4 -21 5 -38 19 -26 22 -29 30 -20 46 13 25 55 22 53 -4z m939 -64 c4 -4
-5 -19 -20 -35 l-26 -28 31 9 c30 9 42 6 42 -10 0 -12 -59 -41 -73 -36 -7 2 2
11 18 20 l30 16 -40 -6 -40 -6 30 33 30 32 -32 -16 c-18 -9 -33 -13 -33 -8 0
5 15 16 33 25 37 18 41 19 50 10z m-987 -44 c37 -41 -25 -80 -66 -39 -16 16
-18 24 -10 40 14 26 52 26 76 -1z m-99 -104 c-5 -10 4 -16 29 -21 19 -3 37
-10 40 -15 6 -10 -10 -10 -46 0 -17 5 -29 2 -38 -8 -12 -14 -13 -13 -8 9 3 14
6 31 6 38 0 6 5 12 11 12 6 0 9 -7 6 -15z m1130 -10 c-18 -13 -17 -14 2 -20
12 -3 21 -10 21 -15 0 -6 -11 -5 -26 1 -15 5 -35 7 -45 4 -11 -4 -19 -2 -19 4
0 6 6 11 13 11 6 0 23 9 37 20 14 10 27 16 30 13 3 -2 -3 -11 -13 -18z m-1127
-201 c0 -17 -22 -14 -28 4 -2 7 3 12 12 12 9 0 16 -7 16 -16z m1138 4 c-6 -18
-28 -21 -28 -4 0 9 7 16 16 16 9 0 14 -5 12 -12z m-1050 -195 c5 -31 -39 -59
-67 -43 -12 6 -21 17 -21 25 0 44 82 61 88 18z m1018 -39 c0 -1 -21 2 -46 6
-25 4 -35 8 -22 9 23 1 30 15 12 26 -5 3 -10 11 -10 17 0 6 15 -4 34 -23 18
-19 33 -35 32 -35z m-967 -49 c0 -5 -6 -2 -14 9 -7 10 -19 15 -25 11 -9 -5 -9
-10 -1 -18 17 -17 13 -31 -4 -17 -8 7 -22 10 -30 6 -27 -10 -16 8 18 30 29 19
33 19 44 5 7 -9 12 -20 12 -26z m876 25 c-4 -6 5 -20 20 -32 14 -11 24 -23 21
-25 -3 -3 -17 4 -32 16 -21 16 -29 19 -35 9 -4 -7 -10 -10 -13 -7 -7 7 23 49
35 49 6 0 7 -5 4 -10z m-20 -80 c23 -24 25 -30 12 -35 -8 -4 -24 -2 -36 4 -32
18 -36 13 -11 -14 13 -14 19 -25 14 -25 -6 0 -23 13 -38 29 -31 32 -22 47 19
31 39 -15 41 -13 15 15 -13 14 -19 25 -14 25 6 0 23 -13 39 -30z m-791 -8 c15
-18 15 -20 -7 -45 -27 -32 -34 -33 -59 -10 -18 16 -18 17 9 45 32 33 35 34 57
10z m706 -57 c18 -29 20 -38 10 -50 -18 -22 -36 -18 -59 11 -32 41 -25 53 8
14 25 -30 30 -32 36 -18 4 10 0 27 -9 40 -15 22 -20 38 -12 38 2 0 14 -16 26
-35z m-625 -5 c9 -14 -8 -13 -23 2 -20 20 -26 -1 -7 -22 10 -11 13 -20 7 -20
-6 0 -14 5 -18 11 -4 8 -9 8 -17 0 -8 -8 -5 -15 9 -26 10 -8 14 -15 8 -15 -5
0 -18 6 -28 13 -17 12 -17 15 4 50 18 31 25 35 40 27 11 -6 22 -15 25 -20z
m65 -35 c10 -12 10 -18 0 -30 -7 -8 -17 -12 -22 -9 -6 4 -8 -2 -3 -15 4 -12 2
-21 -4 -21 -6 0 -11 10 -11 23 -1 21 -1 22 -15 3 -20 -26 -19 -3 0 34 17 33
36 38 55 15z m482 -11 c24 -53 -33 -83 -61 -32 -13 22 -13 29 -2 42 20 24 50
19 63 -10z m-395 -20 c2 -6 -7 -10 -19 -10 -18 1 -24 -5 -26 -26 -2 -20 1 -28
12 -28 9 0 16 7 16 15 0 8 5 15 10 15 12 0 12 -3 4 -24 -12 -31 -64 -12 -64
23 0 36 57 66 67 35z m299 4 c5 -7 2 -9 -9 -5 -24 9 -41 -17 -27 -42 12 -24
21 -26 39 -9 11 11 13 10 9 -2 -8 -26 -51 -18 -62 12 -14 41 29 81 50 46z
m-206 -19 c0 -6 -9 -9 -20 -6 -29 7 -36 -11 -8 -22 l23 -10 -22 0 c-13 -1 -23
-5 -23 -10 0 -5 10 -12 23 -16 19 -6 20 -8 4 -12 -33 -9 -43 3 -39 46 4 38 6
41 33 41 16 0 29 -5 29 -11z m67 -32 c6 -19 8 -18 14 13 6 33 6 33 8 -12 1
-56 -9 -61 -32 -15 l-16 32 -1 -35 -2 -35 -9 35 c-11 45 -4 67 16 50 8 -6 18
-22 22 -33z"/>
<path d="M640 1239 c0 -11 4 -18 10 -14 5 3 7 12 3 20 -7 21 -13 19 -13 -6z"/>
<path d="M986 1138 c-11 -15 -13 -25 -6 -32 14 -14 45 6 45 29 0 27 -21 29
-39 3z"/>
<path d="M320 1134 c0 -17 17 -36 24 -26 3 5 -1 15 -9 22 -8 7 -15 9 -15 4z"/>
<path d="M561 1115 c-316 -89 -442 -458 -247 -723 49 -66 138 -130 218 -159
79 -27 234 -24 310 6 125 49 231 158 275 283 25 73 25 223 0 296 -44 125 -151
236 -275 282 -75 29 -207 36 -281 15z m509 -235 c0 -6 -137 -10 -390 -10 -253
0 -390 4 -390 10 0 6 137 10 390 10 253 0 390 -4 390 -10z m-572 -84 c3 -54 2
-56 -23 -56 -22 0 -25 4 -25 35 0 24 -5 35 -15 35 -12 0 -15 -19 -15 -110 0
-67 4 -110 10 -110 6 0 10 -9 10 -20 0 -17 -7 -20 -50 -20 -43 0 -50 3 -50 20
0 11 5 20 10 20 6 0 10 43 10 110 0 91 -3 110 -15 110 -10 0 -15 -11 -15 -35
0 -30 -3 -35 -22 -35 -21 0 -23 4 -21 57 1 32 2 58 2 58 1 0 47 -1 103 -2
l103 -1 3 -56z m130 39 c2 -10 -1 -20 -6 -24 -12 -7 34 -214 49 -219 5 -2 9
-12 9 -23 0 -16 -7 -19 -50 -19 -43 0 -50 3 -50 20 0 11 5 20 10 20 6 0 10 7
10 15 0 9 -9 15 -25 15 -16 0 -25 -6 -25 -15 0 -8 5 -15 10 -15 6 0 10 -9 10
-20 0 -18 -7 -20 -55 -20 -41 0 -55 4 -55 15 0 7 6 18 14 22 16 9 58 216 45
221 -9 4 -13 35 -5 43 2 2 28 3 58 3 42 -1 54 -5 56 -19z m427 -1 c8 -10 15
-29 15 -41 0 -19 -5 -23 -30 -23 -23 0 -30 4 -30 20 0 15 -7 20 -25 20 l-25 0
0 -110 0 -110 25 0 c18 0 25 5 25 20 0 16 7 20 30 20 25 0 30 -4 30 -22 -1
-44 -22 -58 -87 -58 -84 0 -93 15 -93 151 0 134 13 154 94 153 43 0 59 -5 71
-20z m-191 -6 c20 -29 20 -86 1 -108 -14 -15 -14 -18 0 -30 20 -16 20 -89 -1
-118 -13 -19 -24 -22 -92 -22 l-78 0 4 130 c3 92 1 130 -7 130 -6 0 -11 9 -11
20 0 18 7 20 84 20 76 0 86 -2 100 -22z m236 -305 c0 -5 -94 -7 -210 -5 -140
2 -210 -1 -210 -8 0 -5 6 -10 14 -10 22 0 29 -32 10 -49 -15 -15 -15 -14 -5 7
10 18 9 22 -5 22 -9 0 -18 9 -21 20 -5 18 -14 19 -209 17 -112 -1 -204 1 -204
6 0 4 189 7 420 7 231 0 420 -3 420 -7z m-765 -58 c0 -20 -6 -31 -17 -33 -10
-2 -18 1 -18 7 0 6 7 11 15 11 8 0 15 7 15 15 0 8 -7 15 -15 15 -8 0 -15 5
-15 11 0 6 8 9 18 7 11 -2 17 -13 17 -33z m45 16 c14 -26 13 -29 -10 -41 -14
-7 -20 -7 -20 0 0 5 7 10 15 10 8 0 15 5 15 10 0 6 -7 13 -15 16 -17 7 -21 24
-5 24 5 0 14 -9 20 -19z m74 2 c4 -9 0 -22 -9 -30 -8 -7 -10 -8 -5 -1 15 18
12 28 -8 28 -14 0 -18 -7 -16 -32 1 -22 0 -25 -3 -8 -3 14 -9 29 -14 35 -15
15 -10 21 20 23 19 1 31 -3 35 -15z m26 -20 c0 -32 -5 -28 -14 10 -4 19 -3 26
4 22 5 -3 10 -18 10 -32z m54 5 c9 -17 14 -33 11 -36 -2 -3 -7 3 -11 12 -5 13
-9 14 -23 4 -13 -10 -14 -10 -3 2 16 19 15 30 -3 30 -8 0 -15 5 -15 10 0 22
30 8 44 -22z m44 -3 c0 -25 -1 -25 -19 -9 -24 21 -25 42 -2 23 15 -12 16 -12
10 4 -4 10 -3 16 2 13 5 -3 9 -17 9 -31z m82 25 c0 -5 -9 -10 -21 -10 -11 0
-17 5 -14 10 3 6 13 10 21 10 8 0 14 -4 14 -10z m126 -16 c5 -19 9 -22 15 -12
7 10 9 9 9 -4 0 -9 -4 -20 -10 -23 -5 -3 -10 -1 -10 6 0 9 -4 9 -15 -1 -20
-17 -35 -4 -35 31 0 39 36 42 46 3z m59 0 c12 -18 20 -23 24 -15 6 9 12 7 22
-5 12 -16 12 -17 -2 -12 -9 4 -21 2 -27 -4 -8 -8 -14 -4 -21 15 -6 15 -17 27
-26 27 -8 0 -15 5 -15 10 0 20 28 10 45 -16z m25 5 c0 -6 -4 -7 -10 -4 -5 3
-10 11 -10 16 0 6 5 7 10 4 6 -3 10 -11 10 -16z m30 0 c0 -5 -4 -9 -10 -9 -5
0 -10 7 -10 16 0 8 5 12 10 9 6 -3 10 -10 10 -16z m88 2 c3 -8 0 -11 -6 -7 -6
3 -12 -3 -14 -16 -4 -30 -42 -32 -45 -3 -2 11 0 14 3 8 8 -18 34 -16 34 2 0 8
-9 15 -20 15 -11 0 -20 5 -20 11 0 15 63 6 68 -10z m70 -12 c2 -20 -2 -28 -17
-32 -12 -3 -21 -1 -21 4 0 5 7 9 15 9 8 0 15 7 15 15 0 8 -7 15 -15 15 -8 0
-15 5 -15 11 0 23 35 3 38 -22z m-393 -19 c3 -5 1 -10 -4 -10 -6 0 -11 5 -11
10 0 6 2 10 4 10 3 0 8 -4 11 -10z m345 -4 c0 -3 -4 -8 -10 -11 -5 -3 -10 -1
-10 4 0 6 5 11 10 11 6 0 10 -2 10 -4z"/>
<path d="M566 735 c-12 -32 -7 -75 9 -75 12 0 14 8 9 43 -8 50 -10 53 -18 32z"/>
<path d="M760 770 c0 -36 3 -40 25 -40 23 0 25 4 25 40 0 36 -2 40 -25 40 -22
0 -25 -4 -25 -40z"/>
<path d="M760 635 c0 -41 2 -45 25 -45 23 0 25 4 25 45 0 41 -2 45 -25 45 -23
0 -25 -4 -25 -45z"/>
<path d="M750 465 c0 -8 7 -15 15 -15 8 0 15 7 15 15 0 8 -7 15 -15 15 -8 0
-15 -7 -15 -15z"/>
<path d="M227 1046 c-6 -16 2 -28 14 -20 12 7 11 34 0 34 -5 0 -11 -6 -14 -14z"/>
<path d="M154 935 c-8 -19 1 -31 26 -38 29 -7 39 22 15 39 -24 18 -34 18 -41
-1z"/>
<path d="M146 434 c-19 -18 -13 -34 13 -34 22 0 45 25 36 40 -9 15 -31 12 -49
-6z"/>
<path d="M292 269 c2 -7 10 -15 17 -17 8 -3 12 1 9 9 -2 7 -10 15 -17 17 -8 3
-12 -1 -9 -9z"/>
<path d="M266 252 c-3 -6 1 -15 8 -21 8 -7 17 -8 20 -3 3 6 -1 15 -8 21 -8 7
-17 8 -20 3z"/>
<path d="M436 183 c-11 -11 -6 -23 9 -23 8 0 15 4 15 9 0 13 -16 22 -24 14z"/>
<path d="M907 183 c-12 -11 -8 -40 7 -52 20 -16 36 7 25 37 -8 22 -20 28 -32
15z"/>
</g>
</svg>
